<?xml version="1.0" encoding="utf-8" ?><svg xmlns="http://www.w3.org/2000/svg" xmlns:xlink="http://www.w3.org/1999/xlink" width="1344" height="768" viewBox="0 0 1344 768" xmlns:c2pa="http://c2pa.org/manifest"><metadata><c2pa:manifest>AAAgRWp1bWIAAAAeanVtZGMycGEAEQAQgAAAqgA4m3EDYzJwYQAAAAxBanVtYgAAAEdqdW1kYzJtYQARABCAAACqADibcQN1cm46YzJwYTplNDM1NTFlMi01MzBmLTQ5MGMtYmIyZi0yMTkyMzQ2YWMxMmUAAAAB4mp1bWIAAAApanVtZGMyYXMAEQAQgAAAqgA4m3EDYzJwYS5hc3NlcnRpb25zAAAAAO1qdW1iAAAAQWp1bWRjYm9yABEAEIAAAKoAOJtxE2MycGEuYWN0aW9ucy52MgAAAAAYYzJzaEdTHlS0QabmsV37qCkLZAYAAACkY2JvcqFnYWN0aW9uc4GjZmFjdGlvbmxjMnBhLmNyZWF0ZWRxZGlnaXRhbFNvdXJjZVR5cGV4Rmh0dHA6Ly9jdi5pcHRjLm9yZy9uZXdzY29kZXMvZGlnaXRhbHNvdXJjZXR5cGUvdHJhaW5lZEFsZ29yaXRobWljTWVkaWFrZGVzY3JpcHRpb252Q3JlYXRlZCBieSBSZWNyYWZ0IEFJLgAAAMRqdW1iAAAAQGp1bWRjYm9yABEAEIAAAKoAOJtxE2MycGEuaGFzaC5kYXRhAAAAABhjMnNodzSKwdOOxZIspKJXedAxoAAAAHxjYm9ypWpleGNsdXNpb25zgaJlc3RhcnQY2mZsZW5ndGgZEIxkbmFtZW5qdW1iZiBtYW5pZmVzdGNhbGdmc2hhMjU2ZGhhc2hYIE8MelDEP1VFrTRU6/Eu4wipF+ZNQmvqTHCuHR6vXlaZY3BhZEkAAAAAAAAAAAAAAAI0anVtYgAAACdqdW1kYzJjbAARABCAAACqADibcQNjMnBhLmNsYWltLnYyAAAAAgVjYm9ypmppbnN0YW5jZUlEeCx4bXA6aWlkOmU0YWNhZmFiLWQ4MWEtNDczMi04NmMwLWM1NTQwNmM1ODhiN3RjbGFpbV9nZW5lcmF0b3JfaW5mb6NkbmFtZWpyZWNyYWZ0LmFpZ3ZlcnNpb254KDgxY2U4MmUyYzVjM2NiZmJlOGM2ZmJlMTc5ZDVmOGQ5MWM0MDljZTF3b3JnLmNvbnRlbnRhdXRoLmMycGFfcnNmMC45MC43aXNpZ25hdHVyZXhNc2VsZiNqdW1iZj0vYzJwYS91cm46YzJwYTplNDM1NTFlMi01MzBmLTQ5MGMtYmIyZi0yMTkyMzQ2YWMxMmUvYzJwYS5zaWduYXR1cmVyY3JlYXRlZF9hc3NlcnRpb25zgqJjdXJseCpzZWxmI2p1bWJmPWMycGEuYXNzZXJ0aW9ucy9jMnBhLmFjdGlvbnMudjJkaGFzaFggtY54ciuhSPLeO1O48TejdpjTzocBI8MyVyrnTABGnASiY3VybHgpc2VsZiNqdW1iZj1jMnBhLmFzc2VydGlvbnMvYzJwYS5oYXNoLmRhdGFkaGFzaFggF6m1Ci59YP1iXAsFqsGz0GS1F4LhVh02aj+BKWP+F0loZGM6dGl0bGV4GlJlY3JhZnQgQUkgR2VuZXJhdGVkIEltYWdlY2FsZ2ZzaGEyNTYAAAfcanVtYgAAAChqdW1kYzJjcwARABCAAACqADibcQNjMnBhLnNpZ25hdHVyZQAAAAesY2JvctKEWQOwogEmGCGCWQHnMIIB4zCCAYmgAwIBAgIJALfeWmNDUW56MAoGCCqGSM49BAMCMEAxHzAdBgNVBAMMFlJlY3JhZnQgU3RhZ2luZyBEZXYgQ0ExEDAOBgNVBAoMB1JlY3JhZnQxCzAJBgNVBAYTAlVTMB4XDTI2MDYxMjE5NDM1MFoXDTI3MDYxMjE5NDM1MFowNzELMAkGA1UEBhMCVVMxEzARBgNVBAoTClJlY3JhZnQgQUkxEzARBgNVBAMTCnJlY3JhZnQuYWkwWTATBgcqhkjOPQIBBggqhkjOPQMBBwNCAARKaTVbACsg/DeG3LeOxYdID/VA6EFG73E6Oknb+KIiCFJygRUz4ueN2z/t2qYb6CIUvS8RvgOiiClfoqsYtw81o3UwczAMBgNVHRMBAf8EAjAAMA4GA1UdDwEB/wQEAwIGwDATBgNVHSUEDDAKBggrBgEFBQcDBDAdBgNVHQ4EFgQULzHpBen96SL1y4IPHa8MkMshXf0wHwYDVR0jBBgwFoAUAgsqOBrKqpdK//m/kxZo7ZR4ebcwCgYIKoZIzj0EAwIDSAAwRQIgU8hKW0aXvvk8SQgVFNkax69Ym9ae8GsT2RZTQw+B51ACIQC0D4BkEoRD4N0r2ZRkNy0HZaW3WICy/QZGN95ilF4yzFkBvTCCAbkwggFfoAMCAQICCQCc+Wg7T6ATbzAKBggqhkjOPQQDAjBAMR8wHQYDVQQDDBZSZWNyYWZ0IFN0YWdpbmcgRGV2IENBMRAwDgYDVQQKDAdSZWNyYWZ0MQswCQYDVQQGEwJVUzAeFw0yNjA2MTIxOTQwMTZaFw0yODA2MTExOTQwMTZaMEAxHzAdBgNVBAMMFlJlY3JhZnQgU3RhZ2luZyBEZXYgQ0ExEDAOBgNVBAoMB1JlY3JhZnQxCzAJBgNVBAYTAlVTMFkwEwYHKoZIzj0CAQYIKoZIzj0DAQcDQgAEQ9IQBlcVbKaKPYrQSfOhL/00s7xUDC7RinIuLO/I1k99y9yh6oWF9kPxaP+tx1v1PeOL3yrVquJ730H0ZGiDyqNCMEAwDwYDVR0TAQH/BAUwAwEB/zAOBgNVHQ8BAf8EBAMCAYYwHQYDVR0OBBYEFAILKjgayqqXSv/5v5MWaO2UeHm3MAoGCCqGSM49BAMCA0gAMEUCIFQwNImLlYDeQhjgF+ZiqTbgcuzSqmOJw3Q2lQ/hu83FAiEA9O8cLm/xfoVLqB4jtdbuHzi3WL+p2RN+DRGkwpYswVuhY3BhZFkDpAAAAAAAAAAAAAAAAAAAAAAAAAAAAAAAAAAAAAAAAAAAAAAAAAAAAAAAAAAAAAAAAAAAAAAAAAAAAAAAAAAAAAAAAAAAAAAAAAAAAAAAAAAAAAAAAAAAAAAAAAAAAAAAAAAAAAAAAAAAAAAAAAAAAAAAAAAAAAAAAAAAAAAAAAAAAAAAAAAAAAAAAAAAAAAAAAAAAAAAAAAAAAAAAAAAAAAAAAAAAAAAAAAAAAAAAAAAAAAAAAAAAAAAAAAAAAAAAAAAAAAAAAAAAAAAAAAAAAAAAAAAAAAAAAAAAAAAAAAAAAAAAAAAAAAAAAAAAAAAAAAAAAAAAAAAAAAAAAAAAAAAAAAAAAAAAAAAAAAAAAAAAAAAAAAAAAAAAAAAAAAAAAAAAAAAAAAAAAAAAAAAAAAAAAAAAAAAAAAAAAAAAAAAAAAAAAAAAAAAAAAAAAAAAAAAAAAAAAAAAAAAAAAAAAAAAAAAAAAAAAAAAAAAAAAAAAAAAAAAAAAAAAAAAAAAAAAAAAAAAAAAAAAAAAAAAAAAAAAAAAAAAAAAAAAAAAAAAAAAAAAAAAAAAAAAAAAAAAAAAAAAAAAAAAAAAAAAAAAAAAAAAAAAAAAAAAAAAAAAAAAAAAAAAAAAAAAAAAAAAAAAAAAAAAAAAAAAAAAAAAAAAAAAAAAAAAAAAAAAAAAAAAAAAAAAAAAAAAAAAAAAAAAAAAAAAAAAAAAAAAAAAAAAAAAAAAAAAAAAAAAAAAAAAAAAAAAAAAAAAAAAAAAAAAAAAAAAAAAAAAAAAAAAAAAAAAAAAAAAAAAAAAAAAAAAAAAAAAAAAAAAAAAAAAAAAAAAAAAAAAAAAAAAAAAAAAAAAAAAAAAAAAAAAAAAAAAAAAAAAAAAAAAAAAAAAAAAAAAAAAAAAAAAAAAAAAAAAAAAAAAAAAAAAAAAAAAAAAAAAAAAAAAAAAAAAAAAAAAAAAAAAAAAAAAAAAAAAAAAAAAAAAAAAAAAAAAAAAAAAAAAAAAAAAAAAAAAAAAAAAAAAAAAAAAAAAAAAAAAAAAAAAAAAAAAAAAAAAAAAAAAAAAAAAAAAAAAAAAAAAAAAAAAAAAAAAAAAAAAAAAAAAAAAAAAAAAAAAAAAAAAAAAAAAAAAAAAAAAAAAAAAAAAAAAAAAAAAAAAAAAAAAAAAAAAAAAAAAAAAAAAAAAAAAAAAAAAAAAAAAAAAAAAAAAAAAAAAAAAAAAAAAAAAAAAAAAAAAAAAAAA9lhAFSO04JGCI24+lulnnk5PW1SkDSf1Zuj1+SvfMLCA9UbZiQrgdzp7BEk02SQjjQc4ewP9oUimuOJp0SQ0RlyMhgAAE95qdW1iAAAAR2p1bWRjMm1hABEAEIAAAKoAOJtxA3VybjpjMnBhOjE4MzhiZTNkLTZiZjMtNDYyMS1iODM4LTI1Y2Y1ZjNkNmIyZQAAAAkdanVtYgAAAClqdW1kYzJhcwARABCAAACqADibcQNjMnBhLmFzc2VydGlvbnMAAAAGOmp1bWIAAABEanVtZGNib3IAEQAQgAAAqgA4m3ETYzJwYS5pbmdyZWRpZW50LnYzAAAAABhjMnNog9xpdFJTmXmzFsEM07GckQAABe5jYm9yp2xyZWxhdGlvbnNoaXBocGFyZW50T2ZoZGM6dGl0bGVmc291cmNlaWRjOmZvcm1hdG1pbWFnZS9zdmcreG1scXZhbGlkYXRpb25SZXN1bHRzoW5hY3RpdmVNYW5pZmVzdKNnc3VjY2Vzc4WjZGNvZGV4HWNsYWltU2lnbmF0dXJlLmluc2lkZVZhbGlkaXR5Y3VybHhNc2VsZiNqdW1iZj0vYzJwYS91cm46YzJwYTplNDM1NTFlMi01MzBmLTQ5MGMtYmIyZi0yMTkyMzQ2YWMxMmUvYzJwYS5zaWduYXR1cmVrZXhwbGFuYXRpb251Y2xhaW0gc2lnbmF0dXJlIHZhbGlko2Rjb2RleBhjbGFpbVNpZ25hdHVyZS52YWxpZGF0ZWRjdXJseE1zZWxmI2p1bWJmPS9jMnBhL3VybjpjMnBhOmU0MzU1MWUyLTUzMGYtNDkwYy1iYjJmLTIxOTIzNDZhYzEyZS9jMnBhLnNpZ25hdHVyZWtleHBsYW5hdGlvbnVjbGFpbSBzaWduYXR1cmUgdmFsaWSjZGNvZGV4GWFzc2VydGlvbi5oYXNoZWRVUkkubWF0Y2hjdXJseF5zZWxmI2p1bWJmPS9jMnBhL3VybjpjMnBhOmU0MzU1MWUyLTUzMGYtNDkwYy1iYjJmLTIxOTIzNDZhYzEyZS9jMnBhLmFzc2VydGlvbnMvYzJwYS5hY3Rpb25zLnYya2V4cGxhbmF0aW9ueD5oYXNoZWQgdXJpIG1hdGNoZWQ6IHNlbGYjanVtYmY9YzJwYS5hc3NlcnRpb25zL2MycGEuYWN0aW9ucy52MqNkY29kZXgZYXNzZXJ0aW9uLmhhc2hlZFVSSS5tYXRjaGN1cmx4XXNlbGYjanVtYmY9L2MycGEvdXJuOmMycGE6ZTQzNTUxZTItNTMwZi00OTBjLWJiMmYtMjE5MjM0NmFjMTJlL2MycGEuYXNzZXJ0aW9ucy9jMnBhLmhhc2guZGF0YWtleHBsYW5hdGlvbng9aGFzaGVkIHVyaSBtYXRjaGVkOiBzZWxmI2p1bWJmPWMycGEuYXNzZXJ0aW9ucy9jMnBhLmhhc2guZGF0YaNkY29kZXgYYXNzZXJ0aW9uLmRhdGFIYXNoLm1hdGNoY3VybHhdc2VsZiNqdW1iZj0vYzJwYS91cm46YzJwYTplNDM1NTFlMi01MzBmLTQ5MGMtYmIyZi0yMTkyMzQ2YWMxMmUvYzJwYS5hc3NlcnRpb25zL2MycGEuaGFzaC5kYXRha2V4cGxhbmF0aW9ub2RhdGEgaGFzaCB2YWxpZG1pbmZvcm1hdGlvbmFsgGdmYWlsdXJlgaNkY29kZXgbc2lnbmluZ0NyZWRlbnRpYWwudW50cnVzdGVkY3VybHhNc2VsZiNqdW1iZj0vYzJwYS91cm46YzJwYTplNDM1NTFlMi01MzBmLTQ5MGMtYmIyZi0yMTkyMzQ2YWMxMmUvYzJwYS5zaWduYXR1cmVrZXhwbGFuYXRpb254HXNpZ25pbmcgY2VydGlmaWNhdGUgdW50cnVzdGVkamluc3RhbmNlSUR4LHhtcDppaWQ6OTk4NTQwMmMtYjU5MC00YjM5LThhOWMtYjAxMWZkMGRjOTljbmFjdGl2ZU1hbmlmZXN0o2N1cmx4PnNlbGYjanVtYmY9L2MycGEvdXJuOmMycGE6ZTQzNTUxZTItNTMwZi00OTBjLWJiMmYtMjE5MjM0NmFjMTJlY2FsZ2ZzaGEyNTZkaGFzaFggVrM7sAtGfHw6ctwA9biBGYr2x9VyLz5avQCqygiUqn9uY2xhaW1TaWduYXR1cmWjY3VybHhNc2VsZiNqdW1iZj0vYzJwYS91cm46YzJwYTplNDM1NTFlMi01MzBmLTQ5MGMtYmIyZi0yMTkyMzQ2YWMxMmUvYzJwYS5zaWduYXR1cmVjYWxnZnNoYTI1NmRoYXNoWCCgdk7wl1zzFsZTLWPoQkHrZMyMQl1x9WEq9bqR2SSr1gAAAe5qdW1iAAAAQWp1bWRjYm9yABEAEIAAAKoAOJtxE2MycGEuYWN0aW9ucy52MgAAAAAYYzJzaGUvdmPM/575BOer5801QL0AAAGlY2JvcqFnYWN0aW9uc4KiZmFjdGlvbmtjMnBhLm9wZW5lZGpwYXJhbWV0ZXJzoWtpbmdyZWRpZW50c4GiY3VybHgtc2VsZiNqdW1iZj1jMnBhLmFzc2VydGlvbnMvYzJwYS5pbmdyZWRpZW50LnYzZGhhc2hYIAq9FxQiXrMpIGN7gD2SodvQgjRS7/C3gmyRIS2+JiHnpGZhY3Rpb25sYzJwYS5jcmVhdGVkanBhcmFtZXRlcnOha2luZ3JlZGllbnRzgaJjdXJseC1zZWxmI2p1bWJmPWMycGEuYXNzZXJ0aW9ucy9jMnBhLmluZ3JlZGllbnQudjNkaGFzaFggCr0XFCJesykgY3uAPZKh29CCNFLv8LeCbJEhLb4mIedxZGlnaXRhbFNvdXJjZVR5cGV4QWh0dHA6Ly9jdi5pcHRjLm9yZy9uZXdzY29kZXMvZGlnaXRhbHNvdXJjZXR5cGUvY29tcG9zaXRlU3ludGhldGlja2Rlc2NyaXB0aW9ueB9Db21wb3NlZCBpbiB0aGUgUmVjcmFmdCBlZGl0b3IuAAAAxGp1bWIAAABAanVtZGNib3IAEQAQgAAAqgA4m3ETYzJwYS5oYXNoLmRhdGEAAAAAGGMyc2isf7gtIs+aZILOXkr98s8WAAAAfGNib3KlamV4Y2x1c2lvbnOBomVzdGFydBjqZmxlbmd0aBkrCGRuYW1lbmp1bWJmIG1hbmlmZXN0Y2FsZ2ZzaGEyNTZkaGFzaFgg9w6VlybzaDQor9yMaDv2I55uyS1FX4SgigdEhA9n9fJjcGFkSQAAAAAAAAAAAAAAApZqdW1iAAAAJ2p1bWRjMmNsABEAEIAAAKoAOJtxA2MycGEuY2xhaW0udjIAAAACZ2Nib3Knamluc3RhbmNlSUR4LHhtcDppaWQ6ZWQ0YzgwMDUtMjZiNC00OTlhLTk4NDAtZGRkN2UzYTNjZjNhdGNsYWltX2dlbmVyYXRvcl9pbmZvo2RuYW1lanJlY3JhZnQuYWlndmVyc2lvbngoODFjZTgyZTJjNWMzY2JmYmU4YzZmYmUxNzlkNWY4ZDkxYzQwOWNlMXdvcmcuY29udGVudGF1dGguYzJwYV9yc2YwLjkwLjdpc2lnbmF0dXJleE1zZWxmI2p1bWJmPS9jMnBhL3VybjpjMnBhOjE4MzhiZTNkLTZiZjMtNDYyMS1iODM4LTI1Y2Y1ZjNkNmIyZS9jMnBhLnNpZ25hdHVyZXJjcmVhdGVkX2Fzc2VydGlvbnOComN1cmx4KnNlbGYjanVtYmY9YzJwYS5hc3NlcnRpb25zL2MycGEuYWN0aW9ucy52MmRoYXNoWCBTmisJGvKF370Ph+ogXwp9t98vtIJB2jv92Y5ssmL7ZKJjdXJseClzZWxmI2p1bWJmPWMycGEuYXNzZXJ0aW9ucy9jMnBhLmhhc2guZGF0YWRoYXNoWCD952QzwEGSertlt2xs4erBkgn49Wf70sev1J/3a12Z33NnYXRoZXJlZF9hc3NlcnRpb25zgaJjdXJseC1zZWxmI2p1bWJmPWMycGEuYXNzZXJ0aW9ucy9jMnBhLmluZ3JlZGllbnQudjNkaGFzaFggCr0XFCJesykgY3uAPZKh29CCNFLv8LeCbJEhLb4mIedoZGM6dGl0bGVtUmVjcmFmdCBJbWFnZWNhbGdmc2hhMjU2AAAH3Gp1bWIAAAAoanVtZGMyY3MAEQAQgAAAqgA4m3EDYzJwYS5zaWduYXR1cmUAAAAHrGNib3LShFkDsKIBJhghglkB5zCCAeMwggGJoAMCAQICCQC33lpjQ1FuejAKBggqhkjOPQQDAjBAMR8wHQYDVQQDDBZSZWNyYWZ0IFN0YWdpbmcgRGV2IENBMRAwDgYDVQQKDAdSZWNyYWZ0MQswCQYDVQQGEwJVUzAeFw0yNjA2MTIxOTQzNTBaFw0yNzA2MTIxOTQzNTBaMDcxCzAJBgNVBAYTAlVTMRMwEQYDVQQKEwpSZWNyYWZ0IEFJMRMwEQYDVQQDEwpyZWNyYWZ0LmFpMFkwEwYHKoZIzj0CAQYIKoZIzj0DAQcDQgAESmk1WwArIPw3hty3jsWHSA/1QOhBRu9xOjpJ2/iiIghScoEVM+Lnjds/7dqmG+giFL0vEb4DoogpX6KrGLcPNaN1MHMwDAYDVR0TAQH/BAIwADAOBgNVHQ8BAf8EBAMCBsAwEwYDVR0lBAwwCgYIKwYBBQUHAwQwHQYDVR0OBBYEFC8x6QXp/eki9cuCDx2vDJDLIV39MB8GA1UdIwQYMBaAFAILKjgayqqXSv/5v5MWaO2UeHm3MAoGCCqGSM49BAMCA0gAMEUCIFPISltGl775PEkIFRTZGsevWJvWnvBrE9kWU0MPgedQAiEAtA+AZBKEQ+DdK9mUZDctB2Wlt1iAsv0GRjfeYpReMsxZAb0wggG5MIIBX6ADAgECAgkAnPloO0+gE28wCgYIKoZIzj0EAwIwQDEfMB0GA1UEAwwWUmVjcmFmdCBTdGFnaW5nIERldiBDQTEQMA4GA1UECgwHUmVjcmFmdDELMAkGA1UEBhMCVVMwHhcNMjYwNjEyMTk0MDE2WhcNMjgwNjExMTk0MDE2WjBAMR8wHQYDVQQDDBZSZWNyYWZ0IFN0YWdpbmcgRGV2IENBMRAwDgYDVQQKDAdSZWNyYWZ0MQswCQYDVQQGEwJVUzBZMBMGByqGSM49AgEGCCqGSM49AwEHA0IABEPSEAZXFWymij2K0EnzoS/9NLO8VAwu0YpyLizvyNZPfcvcoeqFhfZD8Wj/rcdb9T3ji98q1arie99B9GRog8qjQjBAMA8GA1UdEwEB/wQFMAMBAf8wDgYDVR0PAQH/BAQDAgGGMB0GA1UdDgQWBBQCCyo4Gsqql0r/+b+TFmjtlHh5tzAKBggqhkjOPQQDAgNIADBFAiBUMDSJi5WA3kIY4BfmYqk24HLs0qpjicN0NpUP4bvNxQIhAPTvHC5v8X6FS6geI7XW7h84t1i/qdkTfg0RpMKWLMFboWNwYWRZA6QAAAAAAAAAAAAAAAAAAAAAAAAAAAAAAAAAAAAAAAAAAAAAAAAAAAAAAAAAAAAAAAAAAAAAAAAAAAAAAAAAAAAAAAAAAAAAAAAAAAAAAAAAAAAAAAAAAAAAAAAAAAAAAAAAAAAAAAAAAAAAAAAAAAAAAAAAAAAAAAAAAAAAAAAAAAAAAAAAAAAAAAAAAAAAAAAAAAAAAAAAAAAAAAAAAAAAAAAAAAAAAAAAAAAAAAAAAAAAAAAAAAAAAAAAAAAAAAAAAAAAAAAAAAAAAAAAAAAAAAAAAAAAAAAAAAAAAAAAAAAAAAAAAAAAAAAAAAAAAAAAAAAAAAAAAAAAAAAAAAAAAAAAAAAAAAAAAAAAAAAAAAAAAAAAAAAAAAAAAAAAAAAAAAAAAAAAAAAAAAAAAAAAAAAAAAAAAAAAAAAAAAAAAAAAAAAAAAAAAAAAAAAAAAAAAAAAAAAAAAAAAAAAAAAAAAAAAAAAAAAAAAAAAAAAAAAAAAAAAAAAAAAAAAAAAAAAAAAAAAAAAAAAAAAAAAAAAAAAAAAAAAAAAAAAAAAAAAAAAAAAAAAAAAAAAAAAAAAAAAAAAAAAAAAAAAAAAAAAAAAAAAAAAAAAAAAAAAAAAAAAAAAAAAAAAAAAAAAAAAAAAAAAAAAAAAAAAAAAAAAAAAAAAAAAAAAAAAAAAAAAAAAAAAAAAAAAAAAAAAAAAAAAAAAAAAAAAAAAAAAAAAAAAAAAAAAAAAAAAAAAAAAAAAAAAAAAAAAAAAAAAAAAAAAAAAAAAAAAAAAAAAAAAAAAAAAAAAAAAAAAAAAAAAAAAAAAAAAAAAAAAAAAAAAAAAAAAAAAAAAAAAAAAAAAAAAAAAAAAAAAAAAAAAAAAAAAAAAAAAAAAAAAAAAAAAAAAAAAAAAAAAAAAAAAAAAAAAAAAAAAAAAAAAAAAAAAAAAAAAAAAAAAAAAAAAAAAAAAAAAAAAAAAAAAAAAAAAAAAAAAAAAAAAAAAAAAAAAAAAAAAAAAAAAAAAAAAAAAAAAAAAAAAAAAAAAAAAAAAAAAAAAAAAAAAAAAAAAAAAAAAAAAAAAAAAAAAAAAAAAAAAAAAAAAAAAAAAAAAAAAAAAAAAAAAAAAAAAAAAAAAAAAAAAAAAAAAAAAAAAAAAAAAAAAAAAAAAAAAAAAAAAAAAAAAAAAAAAAAAAAAAAAAAAAAAAAAAAAAAAAAAAAAAAAAAAAAAAAAAAAAAAAAAAAAAAAAAAAAAAAAPZYQHUVhKM9x1qNp3A0G+rAxeuPcLk0nfWpYTv5l/q66zKY8SFjdvpCfgm0OqQfpRzCh8S3JG/xak05v/R1hgl+g/8=</c2pa:manifest></metadata><defs><linearGradient id="gradient_0" gradientUnits="userSpaceOnUse" x1="1102.7698" y1="603.78864" x2="-53.422665" y2="330.52298"><stop offset="0" stop-color="#9449AF"/><stop offset="1" stop-color="#0F7CD1"/></linearGradient></defs><path fill="url(#gradient_0)" d="M0 0L101.242 0L198.938 0L291.124 0L375.462 0L498.172 0L674.04 0L810.039 0L933.685 0L1003.18 0L1092.99 0L1163.27 0L1249.17 0L1344 0L1344 160.994L1344 222.955L1344 288.039L1344 348.252L1344 414.746L1344 472.236L1344 551.681L1344 620.944L1344 768L1244.83 768L1158.17 768L1084.06 768L1012.95 768L935.76 768L834.406 768L550.757 768L422.92 768L347.378 768L261.479 768L179.446 768L98.8043 768L0 768L0 608.414L0 545.618L0 480.346L0 420.274L0 353.034L0 295.836L0 215.035L0 148.916L0 0Z"/><path fill="#7341B0" d="M810.039 0L933.685 0L1003.18 0L1092.99 0L1163.27 0L1249.17 0L1344 0L1344 160.994L1344 222.955L1344 288.039L1344 348.252L1344 414.746L1344 472.236L1344 551.681L1344 620.944L1344 768L1244.83 768L1158.17 768L1084.06 768L1012.95 768C1021.21 765.187 1031.2 764.332 1039.81 762.632C1061.1 758.427 1096 749.38 1113.12 737.467L1112.99 737.184C1113.51 735.436 1127.01 727.292 1129.47 725.426C1132.2 723.348 1134.72 720.936 1137.16 718.529C1136.44 717.045 1135.81 716.172 1135.96 714.466C1136.33 710.05 1138.76 705.328 1139.64 700.886C1140.55 696.263 1141.45 675.514 1140.19 671.256C1138.29 664.817 1138.62 653.099 1141.42 646.927C1142.2 645.22 1143.14 645.128 1144.77 644.549C1144.74 644.397 1144.74 644.239 1144.69 644.091C1143.25 639.651 1126 628.407 1121.45 625.562L1121.64 624.618C1097.32 606.755 1036.15 598.691 1005.47 596.02C996.75 595.261 980.206 595.544 972.883 593.484C972.822 593.412 972.777 593.321 972.699 593.268C969.676 591.238 915.428 590.646 906.037 590.768C894.17 590.923 881.763 592.154 869.976 591.607L872.192 589.598C871.463 587.757 870.929 585.921 870.415 584.012C876.677 580.918 900.719 587.48 909.578 584.719C917.025 582.397 935.866 584.98 944.65 584.896C950.953 584.835 957.235 584.041 963.53 583.796C965.517 583.718 970.895 584.207 972.491 583.19C972.659 583.083 972.818 582.963 972.981 582.849C955.307 581.623 936.826 583.346 919.067 583.27C854.705 582.993 766.012 579.99 710.046 545.168C693.295 534.745 676.312 519.431 671.842 499.342C669.232 487.614 672.009 475.792 678.444 465.785C688.21 450.597 703.968 440.293 720.119 432.993C768.825 410.979 822.423 411.963 874.646 410.606C894.275 410.096 914.947 409.725 934.199 405.517C926.549 403.556 890.807 411.371 877.156 409.221C877.28 408.297 877.919 407.701 878.463 406.957C877.997 406.015 877.435 405.444 876.846 404.603C875.24 402.309 874.272 395.268 874.777 392.629C908.409 400.052 946.381 394.735 978.675 383.903C984.533 381.938 991.015 380.126 996.394 377.074L995.73 376.383C1000.95 373.139 1012.48 368.414 1018.5 365.43C1080.14 334.843 1119.15 272.742 1112.61 203.236C1108.87 163.428 1093.9 118.851 1064.31 90.9249C1057.32 84.3962 1040.48 76.0691 1032.28 86.5292C1019.25 106.268 1034.66 135.658 1036.66 156.651C1037.97 170.431 1038.11 189.46 1029.32 199.971C1008.59 224.241 984.172 189.584 969.767 176.072C954.517 161.767 938.502 149.085 920.219 138.931C915.213 136.151 890.338 123.451 886.567 128.337C887.195 136.012 917.793 159.714 925.181 166.275C930.677 171.188 935.965 176.328 941.031 181.683C963.803 205.618 979.159 240.498 977.894 273.723C977.377 287.282 972.493 318.129 988.669 323.927C1002.68 328.951 1022.31 316.016 1032.04 306.462C1062.25 279.248 1073.27 238.401 1074.33 198.968C1074.46 194.198 1074.7 177.465 1079.23 175.451C1081.22 176.325 1083.21 178.51 1084.21 180.375C1095.24 200.926 1092.97 231.769 1087.66 253.313C1077.61 294.147 1049.47 327.063 1013.78 348.721C989.103 363.69 945.898 379.95 915.959 375.071C913.027 374.593 907.824 372.026 906.66 369.218C901.684 357.205 918.135 344.7 925.148 337.113C928.628 333.349 930.955 330.457 933.716 326.699C940.461 317.705 945.72 307.688 949.294 297.028C965.531 248.241 943.814 204.13 907.351 170.616C891.765 156.976 871.321 145.609 860.863 127.24C856.877 120.238 859.841 112.674 866.967 109.197C879.487 102.67 896.171 108.722 908.602 103.068C923.944 96.0898 924.012 75.7423 917.524 62.6593C901.557 30.4611 864.507 15.8022 832.284 5.55911C825.2 3.30732 817.442 2.79307 810.634 0.229348L810.039 0Z"/><defs><linearGradient id="gradient_1" gradientUnits="userSpaceOnUse" x1="1343.4232" y1="388.55258" x2="903.36841" y2="392.53531"><stop offset="0" stop-color="#7A189E"/><stop offset="1" stop-color="#8163BF"/></linearGradient></defs><path fill="url(#gradient_1)" d="M1344 160.994L1344 222.955L1344 288.039L1344 348.252L1344 414.746L1344 472.236L1344 551.681L1344 620.944C1342.35 618.808 1340.74 616.652 1339.01 614.584C1301.24 569.494 1249.54 557.097 1193.59 552.421C1190.05 551.168 1154.07 550.125 1148.02 549.971L1068.55 548.235C1022.52 546.854 960.712 546.257 920.874 520.812C889.888 501.022 903.316 472.962 930.073 457.785C959.51 441.088 990.355 432.436 1022.04 420.911C1063.68 405.767 1104.09 389.323 1142.37 366.691C1185.92 340.51 1223.59 305.613 1253.03 264.188C1263.47 249.443 1273.57 234.462 1283.33 219.255C1294.73 201.778 1306.5 182.211 1322.26 168.301C1329.37 162.022 1334.94 161.1 1344 160.994Z"/><defs><linearGradient id="gradient_2" gradientUnits="userSpaceOnUse" x1="1343.5918" y1="449.03424" x2="1067.8212" y2="442.86032"><stop offset="0" stop-color="#1D1D24"/><stop offset="1" stop-color="#4B1E67"/></linearGradient></defs><path fill="url(#gradient_2)" d="M1344 551.681C1285.12 513.749 1180.24 537.227 1111.18 531.096C1099.22 530.034 1085.75 529.043 1075.04 523.155C1070.99 520.929 1067.11 517.691 1065.84 513.06C1064.77 509.131 1065.6 505.047 1067.67 501.591C1078.5 483.465 1121.66 474.862 1141.57 467.805C1153.21 463.574 1164.58 458.643 1175.63 453.04C1201.94 439.79 1226.21 422.451 1249.74 404.84C1279.64 382.456 1307.06 358.015 1344 348.252L1344 414.746L1344 472.236L1344 551.681Z"/><path fill="#6F2498" d="M1344 472.236C1289.92 470.343 1257.85 504.044 1210.86 505.09C1201.74 505.293 1189.26 504.373 1182.46 497.681C1180.3 495.553 1178.84 492.741 1178.92 489.649C1179.04 484.725 1183.06 480.383 1186.49 477.279C1209.19 456.706 1281.06 425.38 1312.06 417.936C1322.72 415.377 1333.06 414.214 1344 414.746L1344 472.236Z"/><defs><linearGradient id="gradient_3" gradientUnits="userSpaceOnUse" x1="1332.8658" y1="349.98853" x2="1097.02" y2="318.51465"><stop offset="0" stop-color="#181F25"/><stop offset="1" stop-color="#4F1C63"/></linearGradient></defs><path fill="url(#gradient_3)" d="M1344 288.039C1260.12 301.366 1236.87 424.927 1127.06 445.171C1115.31 447.336 1097.03 450.047 1086.63 442.667C1083.82 440.667 1081.32 437.587 1080.88 434.061C1080.38 430.045 1082.36 426.182 1084.72 423.073C1095.36 409.056 1119.09 400.317 1134.59 392.627C1142.68 388.614 1150.53 384.365 1158.17 379.538C1178.04 366.856 1196.76 352.462 1214.12 336.52C1225.47 326.083 1236.4 315.197 1246.88 303.888C1268.62 280.11 1294.8 248.89 1321.56 230.622C1328.25 226.05 1336.02 224.002 1344 222.955L1344 288.039Z"/><defs><linearGradient id="gradient_4" gradientUnits="userSpaceOnUse" x1="1277.2125" y1="103.69639" x2="962.6792" y2="129.50661"><stop offset="0" stop-color="#211F31"/><stop offset="1" stop-color="#731B8E"/></linearGradient></defs><path fill="url(#gradient_4)" d="M933.685 0L1003.18 0L1092.99 0L1163.27 0C1170.01 1.80828 1179.62 3.22332 1186.54 4.59558C1242.68 16.5102 1286.44 54.183 1276.28 117.227C1270.21 154.884 1229.39 243.388 1178.29 240.873C1155.08 239.731 1141.99 195.673 1134.69 177.019C1123.54 148.549 1109.4 115.223 1091.42 89.6692C1049.87 26.3412 1003.8 12.7646 933.685 0Z"/><defs><linearGradient id="gradient_5" gradientUnits="userSpaceOnUse" x1="1222.1748" y1="68.621101" x2="1017.6746" y2="73.750381"><stop offset="0" stop-color="#6E2DAB"/><stop offset="1" stop-color="#7851B9"/></linearGradient></defs><path fill="url(#gradient_5)" d="M1003.18 0L1092.99 0C1096.57 1.03773 1101.17 1.81958 1104.94 2.43609C1151.4 10.0217 1210.09 28.8457 1223.05 80.3605C1227.84 99.4036 1222.02 130.379 1203.56 139.89C1174.81 154.691 1152.7 107.651 1138.67 88.9992C1112.51 54.2316 1084.24 25.3071 1041.88 11.1012C1029.27 6.8732 1016.26 3.83298 1003.18 0Z"/><defs><linearGradient id="gradient_6" gradientUnits="userSpaceOnUse" x1="1363.4098" y1="521.79608" x2="811.91718" y2="476.70636"><stop offset="0" stop-color="#1C1C22"/><stop offset="1" stop-color="#841EA5"/></linearGradient></defs><path fill="url(#gradient_6)" d="M1241.92 257.116C1247.63 259.549 1244.59 262.137 1248.57 265.396C1250.66 265.493 1251.12 265.106 1253.03 264.188C1223.59 305.613 1185.92 340.51 1142.37 366.691C1104.09 389.323 1063.68 405.767 1022.04 420.911C990.355 432.436 959.51 441.088 930.073 457.785C903.316 472.962 889.888 501.022 920.874 520.812C960.712 546.257 1022.52 546.854 1068.55 548.235L1148.02 549.971C1154.07 550.125 1190.05 551.168 1193.59 552.421C1249.54 557.097 1301.24 569.494 1339.01 614.584C1340.74 616.652 1342.35 618.808 1344 620.944L1344 768L1244.83 768C1250.19 766.395 1255.99 765.63 1261.46 764.381C1276.01 761.062 1289.77 755.745 1302.13 747.295C1320.71 734.588 1334.43 715.99 1338.62 693.583C1342.74 671.548 1335.24 649.328 1322.73 631.247C1294.65 590.665 1248.09 576.79 1201.91 568.424C1199.85 568.517 1178.79 565.856 1175.16 565.497C1158.84 564.037 1142.48 563.034 1126.11 562.489C1106.91 561.847 1087.87 562.008 1068.68 561.727C1039.48 561.181 1010.28 560.283 981.096 559.031C955.941 557.808 926.889 555.857 902.057 551.179C877.276 545.593 850.426 539.139 830.419 522.851C796.386 495.142 811.206 467.444 846.379 453.153C866.386 445.024 884.026 441.787 904.806 437.438C919.628 434.387 934.379 431.002 949.048 427.284C1045.78 402.392 1149.68 360.324 1218.88 285.435C1227.03 276.61 1234.28 266.454 1241.92 257.116Z"/><path fill="#6F2498" d="M934.199 405.517C934.344 405.512 934.489 405.509 934.634 405.502C951.522 404.695 979.078 395.52 994.86 389.153C1008.78 383.537 1022.08 376.825 1035.33 369.806C1041.98 366.288 1048.63 362.19 1055.5 359.177C1057.12 358.465 1058.58 357.917 1060.38 358.087C1060.78 358.508 1061.33 358.801 1061.3 359.408C1061.05 364.406 1054.57 369.993 1050.94 373.117C1017.92 401.557 951.736 417.943 908.894 423.964C863.704 430.314 784.592 422.998 752.222 459.95C746.118 466.917 742.17 474.905 741.52 484.242C740.705 495.953 745.176 507.263 752.878 515.975C790.106 558.089 892.662 566.205 945.991 569.308C962.232 570.253 978.527 570.432 994.789 570.769C1002.17 570.922 1010.96 570.232 1018.14 571.697L1011.75 572.24C1063.97 573.934 1121.18 572.888 1171.77 586.491C1176.24 587.694 1181.19 588.5 1185.51 590.119C1185.55 591.087 1185.26 591.475 1184.73 592.266L1185.36 591.534L1183.84 591.916L1181.94 590.449C1181.02 591.332 1181.11 591.619 1181.1 592.915C1181.06 598.223 1184.03 601.702 1182.1 607.333L1180.12 608.556C1179.75 610.983 1180.65 613.353 1179.52 615.51C1176.86 615.44 1170.07 610.445 1167.19 609.119C1159.27 605.523 1151.15 602.377 1142.88 599.694C1109.65 589.171 1075.32 585.075 1040.64 583.227C1032.73 582.805 1024.58 581.902 1016.67 582.215L1016.15 582.843C1001.84 583.704 987.335 581.847 972.981 582.849C955.307 581.623 936.826 583.346 919.067 583.27C854.705 582.993 766.012 579.99 710.046 545.168C693.295 534.745 676.312 519.431 671.842 499.342C669.232 487.614 672.009 475.792 678.444 465.785C688.21 450.597 703.968 440.293 720.119 432.993C768.825 410.979 822.423 411.963 874.646 410.606C894.275 410.096 914.947 409.725 934.199 405.517Z"/><path fill="#7341B0" d="M972.981 582.849C987.335 581.847 1001.84 583.704 1016.15 582.843C1072.43 585.847 1160.77 590.31 1200.66 634.92C1211.63 647.195 1218.46 663.217 1217.48 679.847C1216.39 698.262 1205.78 715.136 1192.2 727.097C1168.86 747.656 1137.97 757.234 1108.09 763.454C1100.22 765.091 1091.73 765.808 1084.06 768L1012.95 768C1021.21 765.187 1031.2 764.332 1039.81 762.632C1061.1 758.427 1096 749.38 1113.12 737.467L1112.99 737.184C1113.51 735.436 1127.01 727.292 1129.47 725.426C1132.2 723.348 1134.72 720.936 1137.16 718.529C1136.44 717.045 1135.81 716.172 1135.96 714.466C1136.33 710.05 1138.76 705.328 1139.64 700.886C1140.55 696.263 1141.45 675.514 1140.19 671.256C1138.29 664.817 1138.62 653.099 1141.42 646.927C1142.2 645.22 1143.14 645.128 1144.77 644.549C1144.74 644.397 1144.74 644.239 1144.69 644.091C1143.25 639.651 1126 628.407 1121.45 625.562L1121.64 624.618C1097.32 606.755 1036.15 598.691 1005.47 596.02C996.75 595.261 980.206 595.544 972.883 593.484C972.822 593.412 972.777 593.321 972.699 593.268C969.676 591.238 915.428 590.646 906.037 590.768C894.17 590.923 881.763 592.154 869.976 591.607L872.192 589.598C871.463 587.757 870.929 585.921 870.415 584.012C876.677 580.918 900.719 587.48 909.578 584.719C917.025 582.397 935.866 584.98 944.65 584.896C950.953 584.835 957.235 584.041 963.53 583.796C965.517 583.718 970.895 584.207 972.491 583.19C972.659 583.083 972.818 582.963 972.981 582.849Z"/><path fill="#2A1B4D" d="M1113.12 737.467L1112.99 737.184C1113.51 735.436 1127.01 727.292 1129.47 725.426C1132.2 723.348 1134.72 720.936 1137.16 718.529C1136.44 717.045 1135.81 716.172 1135.96 714.466C1136.33 710.05 1138.76 705.328 1139.64 700.886C1140.55 696.263 1141.45 675.514 1140.19 671.256C1138.29 664.817 1138.62 653.099 1141.42 646.927C1142.2 645.22 1143.14 645.128 1144.77 644.549C1144.74 644.397 1144.74 644.239 1144.69 644.091C1143.25 639.651 1126 628.407 1121.45 625.562L1121.64 624.618C1136.61 632.261 1151.91 646.244 1157.22 662.608C1161.28 675.105 1159.48 688.112 1153.47 699.628C1145.55 714.802 1128.66 730.424 1113.12 737.467Z"/><defs><linearGradient id="gradient_7" gradientUnits="userSpaceOnUse" x1="1271.8285" y1="673.17126" x2="1098.6514" y2="681.08203"><stop offset="0" stop-color="#251E31"/><stop offset="1" stop-color="#441D63"/></linearGradient></defs><path fill="url(#gradient_7)" d="M1018.14 571.697C1036.28 571.944 1054.42 572.465 1072.54 573.26C1131.46 575.645 1206.08 581.413 1249.77 625.725C1263.86 640.009 1273.75 658.198 1273.5 678.625C1273.26 697.917 1264 714.907 1250.37 728.12C1231.86 746.057 1206.51 756.374 1181.9 762.652C1174.08 764.647 1165.88 765.764 1158.17 768L1084.06 768C1091.73 765.808 1100.22 765.091 1108.09 763.454C1137.97 757.234 1168.86 747.656 1192.2 727.097C1205.78 715.136 1216.39 698.262 1217.48 679.847C1218.46 663.217 1211.63 647.195 1200.66 634.92C1160.77 590.31 1072.43 585.847 1016.15 582.843L1016.67 582.215C1024.58 581.902 1032.73 582.805 1040.64 583.227C1075.32 585.075 1109.65 589.171 1142.88 599.694C1151.15 602.377 1159.27 605.523 1167.19 609.119C1170.07 610.445 1176.86 615.44 1179.52 615.51C1180.65 613.353 1179.75 610.983 1180.12 608.556L1182.1 607.333C1184.03 601.702 1181.06 598.223 1181.1 592.915C1181.11 591.619 1181.02 591.332 1181.94 590.449L1183.84 591.916L1185.36 591.534L1184.73 592.266C1185.26 591.475 1185.55 591.087 1185.51 590.119C1181.19 588.5 1176.24 587.694 1171.77 586.491C1121.18 572.888 1063.97 573.934 1011.75 572.24L1018.14 571.697Z"/><path fill="#241D2C" d="M1249.17 0L1344 0L1344 160.994C1334.94 161.1 1329.37 162.022 1322.26 168.301C1306.5 182.211 1294.73 201.778 1283.33 219.255C1273.57 234.462 1263.47 249.443 1253.03 264.188C1251.12 265.106 1250.66 265.493 1248.57 265.396C1244.59 262.137 1247.63 259.549 1241.92 257.116C1274.15 211.081 1308.74 146.061 1325.6 91.861C1330.63 75.7139 1332.63 52.687 1323.28 37.8739C1306.53 11.3543 1275.84 7.11141 1249.17 0Z"/><defs><linearGradient id="gradient_8" gradientUnits="userSpaceOnUse" x1="348.4407" y1="340.38449" x2="1036.3291" y2="14.72276"><stop offset="0" stop-color="#282673"/><stop offset="1" stop-color="#821F96"/></linearGradient></defs><path fill="url(#gradient_8)" d="M198.938 0L291.124 0L375.462 0L498.172 0L674.04 0L810.039 0L810.634 0.229348C817.442 2.79307 825.2 3.30732 832.284 5.55911C864.507 15.8022 901.557 30.4611 917.524 62.6593C924.012 75.7423 923.944 96.0898 908.602 103.068C896.171 108.722 879.487 102.67 866.967 109.197C859.841 112.674 856.877 120.238 860.863 127.24C871.321 145.609 891.765 156.976 907.351 170.616C943.814 204.13 965.531 248.241 949.294 297.028C945.72 307.688 940.461 317.705 933.716 326.699C930.955 330.457 928.628 333.349 925.148 337.113C918.135 344.7 901.684 357.205 906.66 369.218C907.824 372.026 913.027 374.593 915.959 375.071C945.898 379.95 989.103 363.69 1013.78 348.721C1049.47 327.063 1077.61 294.147 1087.66 253.313C1092.97 231.769 1095.24 200.926 1084.21 180.375C1083.21 178.51 1081.22 176.325 1079.23 175.451C1074.7 177.465 1074.46 194.198 1074.33 198.968C1073.27 238.401 1062.25 279.248 1032.04 306.462C1022.31 316.016 1002.68 328.951 988.669 323.927C972.493 318.129 977.377 287.282 977.894 273.723C979.159 240.498 963.803 205.618 941.031 181.683C935.965 176.328 930.677 171.188 925.181 166.275C917.793 159.714 887.195 136.012 886.567 128.337C890.338 123.451 915.213 136.151 920.219 138.931C938.502 149.085 954.517 161.767 969.767 176.072C984.172 189.584 1008.59 224.241 1029.32 199.971C1038.11 189.46 1037.97 170.431 1036.66 156.651C1034.66 135.658 1019.25 106.268 1032.28 86.5292C1040.48 76.0691 1057.32 84.3962 1064.31 90.9249C1093.9 118.851 1108.87 163.428 1112.61 203.236C1119.15 272.742 1080.14 334.843 1018.5 365.43C1012.48 368.414 1000.95 373.139 995.73 376.383L996.394 377.074C991.015 380.126 984.533 381.938 978.675 383.903C946.381 394.735 908.409 400.052 874.777 392.629C868.398 390.335 856.462 385.873 855.466 378.388C852.866 358.853 883.686 344.906 895.892 334.471C901.746 329.466 905.762 323.911 911.144 318.568C915.695 313.688 922.104 303.465 924.3 297.287C924.926 295.525 925.733 291.461 926.077 289.518C926.863 288.994 928.237 288.673 928.532 287.647C945.323 229.178 897.593 182.219 852.328 155.063L852.593 153.96C842.777 145.877 773.313 111.917 775.448 143.054C776.53 158.82 807.451 192.25 816.389 205.475C836.539 235.29 838.877 265.981 816.45 295.119C802.637 314.105 765.696 338.681 743.962 344.289L743.421 344.545C731.177 350.269 716.776 353.626 703.819 357.661C632.71 379.804 532.614 397.665 503.221 476.389C498.481 489.084 496.118 503.471 498.239 516.956C499.408 524.388 501.824 531.446 504.521 538.445C508.669 549.207 526.506 582.837 511.238 589.96C504.347 593.176 495.471 590.63 488.756 588.049C468.82 580.385 452.007 562.927 443.475 543.528C439.617 534.758 437.745 525.948 436.569 516.479C436.524 517.797 436.431 519.084 436.341 520.399C435.616 519.26 435.508 515.806 435.391 514.315C434.429 501.984 436.624 487.718 441.46 476.302C458.579 435.892 498.578 406.981 537.227 388.931C542.442 386.54 548.092 383.545 553.353 381.587C564.685 377.433 576.13 373.595 587.676 370.076C591.11 369.029 599.003 367.376 601.322 366.373C601.494 362.989 601.669 358.883 602.074 355.602C602.286 353.886 607.155 346.875 608.266 346.107C608.648 348.348 609.221 354.096 611.073 355.278C618.077 346.044 610.764 340.745 613.832 333.344C616.507 331.571 621.041 331.259 624.205 331.22C624.895 331.636 625.293 331.886 626.03 332.211C632.448 324.654 644.173 318.787 653.537 315.68L653.827 316.473C723.902 286.029 721.528 226.653 654.063 196.265C593.947 169.187 521.507 168.518 456.877 173.431C453.982 173.224 443.414 174.101 440.008 174.367C425.044 175.624 410.103 177.133 395.19 178.895C314.203 187.65 195.005 209.343 122.476 164.487C101.793 151.695 83.5218 132.665 77.8701 108.38C73.8048 90.9116 78.1349 72.7214 87.5799 57.7177C104.678 30.5575 138.169 14.0927 168.24 6.24359C178.381 3.59675 188.743 2.33665 198.938 0Z"/><path fill="#4B2E83" d="M198.938 0L291.124 0L375.462 0C364.362 2.38696 353.799 3.83072 342.571 6.51829C313.869 13.3883 276.252 28.4469 259.525 54.4367C252.334 65.5234 249.778 78.9899 252.408 91.9412C254.024 99.5403 256.437 103.739 260.3 110.201C257.787 108.528 255.63 104.155 255.107 104.198C251.05 104.533 238.092 94.409 236.384 94.7169C231.756 104.531 230.506 121.597 234.326 132.146C235.054 134.161 236.009 136.086 237.174 137.884C235.826 146.66 233.995 147.744 239.417 155.378L244.742 157.177L245.333 158.401L245.983 158.65C261.787 164.603 291.407 167.509 308.984 168.673C359.532 172.021 408.746 165.313 459.123 161.254C536.588 155.497 621.12 150.365 693.647 183.361C715.781 193.431 738.283 209.722 748.763 231.936C767.338 271.305 739.065 302.796 704.036 317.591C682.874 326.529 653.577 335.756 630.065 331.904C629.726 331.829 629.243 331.25 629.026 330.997C630 328.058 636.678 324.875 639.616 323.401C644.339 321.064 649.076 318.754 653.827 316.473C723.902 286.029 721.528 226.653 654.063 196.265C593.947 169.187 521.507 168.518 456.877 173.431C453.982 173.224 443.414 174.101 440.008 174.367C425.044 175.624 410.103 177.133 395.19 178.895C314.203 187.65 195.005 209.343 122.476 164.487C101.793 151.695 83.5218 132.665 77.8701 108.38C73.8048 90.9116 78.1349 72.7214 87.5799 57.7177C104.678 30.5575 138.169 14.0927 168.24 6.24359C178.381 3.59675 188.743 2.33665 198.938 0Z"/><path fill="#2275CE" d="M291.124 0L375.462 0C364.362 2.38696 353.799 3.83072 342.571 6.51829C313.869 13.3883 276.252 28.4469 259.525 54.4367C252.334 65.5234 249.778 78.9899 252.408 91.9412C254.024 99.5403 256.437 103.739 260.3 110.201C257.787 108.528 255.63 104.155 255.107 104.198C251.05 104.533 238.092 94.409 236.384 94.7169C231.756 104.531 230.506 121.597 234.326 132.146C235.054 134.161 236.009 136.086 237.174 137.884C235.826 146.66 233.995 147.744 239.417 155.378L244.742 157.177L245.333 158.401C232.977 155.662 220.484 149.566 209.429 143.611C178.373 126.883 158.479 92.8641 178.585 59.2649C195.305 31.3241 228.685 16.4654 258.817 7.74816C269.44 4.67505 280.413 2.8032 291.124 0Z"/><path fill="#2C44B0" d="M498.172 0L674.04 0C670.103 2.56238 650.007 4.83443 643.207 5.65928C611.344 9.52382 527.61 38.9149 569.436 82.2578C584.361 97.7236 621.941 114.236 644.3 122.43C656.62 128.56 668.591 132.785 681.596 139.448C680.003 139.309 678.184 139.099 676.605 139.109C674.954 139.054 655.008 134.242 652.02 133.655C636.273 130.713 620.38 128.617 604.408 127.376C583.954 125.924 563.435 125.617 542.947 126.457C499.764 128.201 450.538 136.162 410.894 113.888C388.948 101.557 373.942 77.7851 388.819 53.4297C405.332 26.3974 438.855 14.0966 467.988 6.46429C477.94 3.85697 488.212 2.55253 498.172 0Z"/><defs><linearGradient id="gradient_9" gradientUnits="userSpaceOnUse" x1="792.03082" y1="228.85881" x2="231.92258" y2="230.19089"><stop offset="0" stop-color="#8D62BA"/><stop offset="1" stop-color="#2B68C7"/></linearGradient></defs><path fill="url(#gradient_9)" d="M237.174 137.884C236.009 136.086 235.054 134.161 234.326 132.146C230.506 121.597 231.756 104.531 236.384 94.7169C238.092 94.409 251.05 104.533 255.107 104.198C255.63 104.155 257.787 108.528 260.3 110.201C265.383 115.511 269.801 121.238 275.873 125.594C302.406 144.628 341.636 151.876 373.72 152.33C483.339 153.882 597.876 123.866 703.669 166.138C738.849 180.195 794.084 215.813 793.661 260.063C791.319 298.498 751.047 321.269 720.191 334.279C649.997 363.877 571.18 363.426 506.77 406.941C466.908 433.872 434.514 465.531 436.569 516.479C436.524 517.797 436.431 519.084 436.341 520.399C435.616 519.26 435.508 515.806 435.391 514.315C434.429 501.984 436.624 487.718 441.46 476.302C458.579 435.892 498.578 406.981 537.227 388.931C542.442 386.54 548.092 383.545 553.353 381.587C564.685 377.433 576.13 373.595 587.676 370.076C591.11 369.029 599.003 367.376 601.322 366.373C601.494 362.989 601.669 358.883 602.074 355.602C602.286 353.886 607.155 346.875 608.266 346.107C608.648 348.348 609.221 354.096 611.073 355.278C618.077 346.044 610.764 340.745 613.832 333.344C616.507 331.571 621.041 331.259 624.205 331.22C624.895 331.636 625.293 331.886 626.03 332.211C632.448 324.654 644.173 318.787 653.537 315.68L653.827 316.473C649.076 318.754 644.339 321.064 639.616 323.401C636.678 324.875 630 328.058 629.026 330.997C629.243 331.25 629.726 331.829 630.065 331.904C653.577 335.756 682.874 326.529 704.036 317.591C739.065 302.796 767.338 271.305 748.763 231.936C738.283 209.722 715.781 193.431 693.647 183.361C621.12 150.365 536.588 155.497 459.123 161.254C408.746 165.313 359.532 172.021 308.984 168.673C291.407 167.509 261.787 164.603 245.983 158.65L245.333 158.401L244.742 157.177L239.417 155.378C233.995 147.744 235.826 146.66 237.174 137.884Z"/><path fill="#6F2498" d="M725.71 119.166C721.323 98.7927 732.712 100.692 733.526 92.121C731.491 86.0058 727.755 80.6442 729.534 71.912C730.778 71.6537 731.264 72.066 732.416 72.6391C733.409 71.2565 734.611 63.38 734.082 61.9831C731.044 53.9707 732.343 45.0355 730.914 36.7894C730.459 34.1574 728.153 28.585 727.166 25.8667C727.993 24.8934 727.927 24.9577 729.147 24.5668C729.215 21.7433 729.581 14.3575 729.053 12.0089C723.097 9.14057 699.448 6.50254 691.925 5.57498C688.489 5.15135 682.09 5.34295 678.882 4.23999C681.484 2.34078 703.025 5.61516 707.748 6.44635C742.388 12.5821 783.442 20.5702 807.886 47.9507C813.894 54.6798 814.081 67.2495 805.433 72.3115C783.599 85.0934 719.74 77.4145 726.611 118.876C731.965 142.434 756.216 156.861 772.398 173.04C778.467 179.109 802.145 206.155 799.702 214.624C794.498 216.022 782.893 204.253 779.434 200.607C757.004 176.967 730.527 159.151 700.417 146.806C693.29 143.884 684.313 142.056 676.605 139.109C678.184 139.099 680.003 139.309 681.596 139.448C668.591 132.785 656.62 128.56 644.3 122.43C652.406 121.806 704.773 149.09 715.357 152.053C719.507 153.215 723.864 158.727 729.243 158.492L729.969 157.674C728.791 156.29 728.479 156.608 726.388 156.17C725.274 148.766 733.142 138.765 732.465 136.17C731.432 132.208 725.959 126.698 725.71 119.166Z"/><path fill="#6F2498" d="M743.962 344.289C746.078 341.744 762.578 335.58 767.021 333.17C798.916 315.866 834.362 286.571 831.164 246.321C829.153 221.802 813.3 202.921 798.983 184.7C790.373 173.744 767.201 147.726 776.799 133.875C787.073 122.855 813.813 133.568 824.162 138.11C845.862 147.634 865.948 158.651 883.729 174.06C889.798 179.32 894.169 184.138 901.707 187.81C902.551 188.222 903.817 194.304 905.255 195.069C948.234 240.681 942.58 304.714 891.013 341.103C881.631 347.723 845.871 369.322 861.025 382.652C873.691 394.058 899.865 394.528 916.019 393.679C922.039 393.313 928.047 392.779 934.037 392.076C939.686 391.361 946.192 388.971 951.81 389.849C960.609 390.095 986.337 380.159 995.73 376.383L996.394 377.074C991.015 380.126 984.533 381.938 978.675 383.903C946.381 394.735 908.409 400.052 874.777 392.629C868.398 390.335 856.462 385.873 855.466 378.388C852.866 358.853 883.686 344.906 895.892 334.471C901.746 329.466 905.762 323.911 911.144 318.568C915.695 313.688 922.104 303.465 924.3 297.287C924.926 295.525 925.733 291.461 926.077 289.518C926.863 288.994 928.237 288.673 928.532 287.647C945.323 229.178 897.593 182.219 852.328 155.063L852.593 153.96C842.777 145.877 773.313 111.917 775.448 143.054C776.53 158.82 807.451 192.25 816.389 205.475C836.539 235.29 838.877 265.981 816.45 295.119C802.637 314.105 765.696 338.681 743.962 344.289Z"/><path fill="#7A5AC7" d="M874.777 392.629C868.398 390.335 856.462 385.873 855.466 378.388C852.866 358.853 883.686 344.906 895.892 334.471C901.746 329.466 905.762 323.911 911.144 318.568C915.695 313.688 922.104 303.465 924.3 297.287C924.926 295.525 925.733 291.461 926.077 289.518C926.863 288.994 928.237 288.673 928.532 287.647C945.323 229.178 897.593 182.219 852.328 155.063L852.593 153.96C882.785 169.49 918.004 203.462 928.733 236.865C935.767 258.246 934.016 281.548 923.867 301.638C916.797 315.324 900.561 334.181 886.901 342.568C861.595 358.105 834.879 383.969 883.292 393.263C899.136 396.305 935.525 395.464 951.81 389.849C960.609 390.095 986.337 380.159 995.73 376.383L996.394 377.074C991.015 380.126 984.533 381.938 978.675 383.903C946.381 394.735 908.409 400.052 874.777 392.629Z"/><defs><linearGradient id="gradient_10" gradientUnits="userSpaceOnUse" x1="295.97202" y1="432.76376" x2="974.97235" y2="505.70609"><stop offset="0" stop-color="#232763"/><stop offset="1" stop-color="#8320A6"/></linearGradient></defs><path fill="url(#gradient_10)" d="M387.748 412.607C404.639 400.512 453.636 383.791 474.79 387.053C477.602 387.487 480.836 388.492 482.613 390.874C483.926 392.634 484.174 394.588 483.733 396.7C481.257 408.552 458.184 427.66 449.663 437.085C416.475 473.792 406.494 519.552 433.809 562.917C456.196 598.457 500.028 626.224 540.765 635.395C550.01 637.477 565.265 639.754 573.626 634.422C575.899 632.973 577.654 630.862 578.206 628.168C579.743 620.652 571.937 609.783 567.684 603.87C542.852 569.347 513.168 540.244 520.559 493.858C525.27 464.289 547.461 440.958 570.855 424.159C587.115 412.484 605.535 404.198 624.232 397.264C652.506 386.779 681.795 378.622 710.493 369.357C757.564 354.161 813.98 336.984 842.232 293.158C848.377 283.627 852.977 273.428 854.858 262.194C856.433 252.783 855.666 243.322 853.44 234.08C851.029 224.063 836.044 196.103 846.292 188.224C849.351 185.872 853.922 186.191 857.512 186.803C874.327 189.67 890.157 204.844 899.548 218.359C911.237 235.182 915.302 253.616 911.65 273.78C907.062 299.111 890.456 318.295 869.766 332.582C850.961 345.323 830.405 355.262 808.742 362.088C737.001 384.951 573.163 400.063 556.168 490.923C552.71 509.411 558.969 528.387 569.49 543.598C571.591 546.635 573.847 549.716 576.558 552.236C610.636 593.568 675.662 610.177 726.913 615.092C747.929 617.107 769.019 617.858 790.112 618.567C837.296 620.153 911.832 619.894 944.585 659.303C952.517 668.847 957.394 680.717 956.218 693.3C954.793 708.565 944.824 721.513 933.286 730.897C911.984 748.225 885.173 756.844 858.754 762.731C850.798 764.504 842.147 765.585 834.406 768L550.757 768C541.257 765.147 531.401 763.291 521.775 760.883C491.571 753.328 458.937 742.817 437.007 719.607C428.188 710.273 420.903 697.895 421.428 684.655C423.029 644.244 464.696 666.059 479.483 650.827C481.239 649.018 482.051 646.62 482.044 644.134C481.998 629.84 454.034 610.608 443.882 602.253C439.474 598.615 435.265 594.743 431.274 590.652C391.645 550.378 382.87 501.321 413.272 452.795C417.422 446.17 430.884 430.153 430.951 423.023L429.912 422.425C427.865 422.569 426.177 422.98 424.314 423.851C404.836 432.953 385.567 459.573 378.428 479.418C367.163 510.738 374.561 545.762 393.037 572.766C402.34 586.363 413.943 597.983 426.226 608.87C432.773 614.673 451.351 628.88 454.459 636.043C454.913 637.089 454.549 637.375 454.118 638.37C453.346 638.873 452.562 639.281 451.635 639.411C441.281 640.862 418.108 629.513 410.078 622.998L409.627 622.626L410.549 622.395C409.452 620.83 392.545 609.11 389.201 606.266C375.768 594.842 362.815 575.484 347.418 567.879C342.442 565.421 336.549 564.095 331.152 565.964C321.953 569.15 318.217 578.507 314.214 586.486C314.062 586.103 313.967 585.768 313.936 585.354C313.863 584.355 313.914 583.135 313.638 582.176C313.013 580.01 312.113 580.584 310.562 579.605C309.879 579.173 309.557 578.183 308.81 577.83C305.176 576.11 299.844 578.974 295.849 577.646C292.27 576.456 288.924 572.217 285.538 570.325L285.002 570.031C284.721 569.07 284.429 568.096 284.238 567.112C283.868 565.208 284.09 563.961 285.18 562.409C287.32 561.989 289.1 562.81 291.113 563.439C293.656 564.235 295.005 564.748 297.445 563.468C297.959 562.702 298.429 561.901 298.63 560.99C299.58 556.686 297.639 550.738 295.336 547.111C294.396 547.392 293.657 547.588 292.666 547.614C292.419 544.264 295.185 541.391 295.17 538.037C295.143 531.48 290.271 529.337 286.277 525.153C287.61 523.114 288.032 520.532 288.915 518.252C289.543 519.054 289.967 519.765 291.01 520.027C291.549 518.654 290.368 518.517 290.497 517.327C290.787 514.634 292.286 512.131 294.375 510.451C295.801 510.532 296.319 511.276 297.41 512.161C300.322 509.468 296.496 503.4 298.038 500.019C301.102 493.295 305.304 487.324 309.58 481.328C330.035 452.645 357.438 430.861 387.942 413.649L387.748 412.607Z"/><path fill="#7341B0" d="M545.147 542.555C552.217 544.443 574.57 571.199 582.091 577.807C590.448 585.08 599.367 591.68 608.764 597.547C658.494 628.831 720.721 635.007 767.746 670.775C776.599 677.509 782.521 684.21 786.379 694.816C787.136 696.896 788.187 699.234 788.433 701.432C789.276 708.944 783.502 719.465 778.697 725.102C761.253 745.568 716.43 756.586 690.874 758.88C661.858 762.567 629.734 759.081 601.358 752.011C583.851 747.648 555.081 738.18 543.289 723.554C541.227 720.996 540.658 717.718 538.979 714.959C537.217 712.064 536.436 708.815 536.738 705.416C536.927 703.301 538.43 701.446 539.794 699.916C552.058 686.156 579.415 686.714 596.245 682.525C605.51 680.218 615.605 676.761 623.151 670.736C628.047 666.827 631.799 661.662 632.427 655.284C634.597 633.264 597.985 606.776 583.37 593.502C576.398 587.213 569.888 580.431 563.89 573.208C558.7 566.963 544.407 550.58 545.147 542.555Z"/><path fill="#2A1B4D" d="M295.702 516.778C296.949 517.041 298.703 517.183 299.474 518.375C299.927 519.074 299.831 519.165 299.663 520.025C298.412 519.958 296.992 520.099 295.779 519.946C295.572 519.92 295.166 519.824 295.069 519.592C294.932 519.259 295.103 518.757 295.218 518.441C295.421 517.885 295.561 517.355 295.702 516.778Z"/><defs><linearGradient id="gradient_11" gradientUnits="userSpaceOnUse" x1="447.32126" y1="358.7916" x2="-8.838665" y2="380.62595"><stop offset="0" stop-color="#3B63C4"/><stop offset="1" stop-color="#0988D6"/></linearGradient></defs><path fill="url(#gradient_11)" d="M0 148.916C7.39601 157.855 13.8566 165.65 22.5782 173.494C53.6043 201.371 95.4475 217.271 136.743 220.887C164.767 223.161 193.157 223.702 221.284 223.261C279.268 222.351 336.926 215.407 393.788 230.904C430.698 240.964 469.219 267.544 424.534 301.576C396.88 322.637 361.464 332.188 329.505 344.779C223.89 384.487 156.847 420.65 89.8203 512.209C83.0343 521.354 76.4512 530.647 70.0756 540.082C57.8196 558.325 46.1337 577.609 30.7959 593.417C21.5129 602.985 13.4212 607.526 0 608.414L0 545.618L0 480.346L0 420.274L0 353.034L0 295.836L0 215.035L0 148.916Z"/><path fill="#4B2E83" d="M0 215.035C78.4432 262.523 174.184 232.964 259.866 243.767C270.353 245.09 286.439 253.793 278.647 266.502C263.717 285.224 227.635 292.625 205.428 300.683C193.896 304.848 182.638 309.733 171.72 315.312C149.121 327.039 131.361 339.877 111.121 354.799C81.0718 376.951 44.2628 410.066 7.69378 418.596C5.1339 419.177 2.56922 419.736 0 420.274L0 353.034L0 295.836L0 215.035Z"/><path fill="#2275CE" d="M0 295.836C12.593 297.021 30.1007 297.28 42.4806 294.115C75.8172 285.592 106.224 265.284 141.939 267.775C150.897 267.98 163.119 271.923 162.149 282.986C161.614 289.096 152.395 297.743 147.365 301.005C111.103 324.519 43.8882 359.684 0.560297 353.122L0 353.034L0 295.836Z"/><path fill="#4B2E83" d="M0 480.346C15.0333 478.58 27.6999 474.563 40.6443 466.549C57.4471 456.147 71.0959 440.763 84.0319 426.008C124.918 379.375 159.599 332.977 225.569 322.39C236.533 320.63 253.861 319.03 263.142 326.305C265.597 328.229 267.793 331.02 268.014 334.231C268.329 338.828 265.095 343.314 262.116 346.493C248.101 361.452 216.961 374.064 198.251 384.43C187.242 390.53 176.378 397.868 166.197 405.28C150.022 417.275 134.787 430.488 120.624 444.804C107.61 458.318 94.7862 472.014 82.1573 485.889C60.7893 508.977 33.4863 542.674 0 545.618L0 480.346Z"/><defs><linearGradient id="gradient_12" gradientUnits="userSpaceOnUse" x1="-8.4865932" y1="382.21069" x2="660.96692" y2="400.62738"><stop offset="0" stop-color="#203B5B"/><stop offset="1" stop-color="#382079"/></linearGradient></defs><path fill="url(#gradient_12)" d="M0 0L101.242 0C92.0589 2.57075 82.8332 4.65745 73.747 7.50449C28.5765 21.6582 -4.36304 61.3937 9.20979 110.268C18.0161 141.979 43.1214 165.917 71.1719 181.908C138.426 218.441 233.41 208.977 307.346 201.764C336.137 198.708 364.853 191.761 393.641 189.209C468.784 182.545 552.282 177.173 622.862 208.779C648.416 220.222 679.219 246.338 660.954 277.002C644.063 305.36 603.24 317.245 573.21 325.925C550.819 331.883 520.03 335.203 496.606 339.237C444.244 348.257 403.817 358.86 355.96 381.66C349.042 384.985 342.212 388.492 335.479 392.177C328.255 396.189 299.321 414.711 292.112 413.108C291.492 412.45 291.252 412.406 291.301 411.488C291.589 406.001 299.769 398.546 303.927 395.09C331.294 372.345 376.808 357.252 410.825 347.259C433.407 340.625 456.404 335.209 479.24 329.516C509.856 321.883 597.559 304.882 601.427 266.688C602.259 258.468 598.278 250.628 593.111 244.5C567.673 214.339 511.314 206.098 473.647 203.201C432.843 200.063 392.458 204.095 351.802 206.899L351.704 207.691C366.366 208.773 382.328 207.597 396.792 209.023C437.021 213.113 482.989 217.32 518.625 237.751C566.735 265.335 531.99 297.827 496.243 309.578C492.667 310.753 485.091 314.51 481.485 313.979C447.916 325.27 413.586 334.539 379.848 345.361C219.744 396.719 127.949 447.927 50.868 603.06C36.2966 632.386 8.77267 687.222 19.5833 719.526C25.0116 735.746 38.3297 746.955 53.2913 754.269C67.651 761.289 83.324 764.483 98.8043 768L0 768L0 608.414C13.4212 607.526 21.5129 602.985 30.7959 593.417C46.1337 577.609 57.8196 558.325 70.0756 540.082C76.4512 530.647 83.0343 521.354 89.8203 512.209C156.847 420.65 223.89 384.487 329.505 344.779C361.464 332.188 396.88 322.637 424.534 301.576C469.219 267.544 430.698 240.964 393.788 230.904C336.926 215.407 279.268 222.351 221.284 223.261C193.157 223.702 164.767 223.161 136.743 220.887C95.4475 217.271 53.6043 201.371 22.5782 173.494C13.8566 165.65 7.39601 157.855 0 148.916L0 0Z"/><path fill="#2C44B0" d="M336.443 208.94C340.443 208.125 348.002 206.397 351.802 206.899L351.704 207.691C366.366 208.773 382.328 207.597 396.792 209.023C437.021 213.113 482.989 217.32 518.625 237.751C566.735 265.335 531.99 297.827 496.243 309.578C492.667 310.753 485.091 314.51 481.485 313.979C500.246 304.606 538.057 296.74 540.778 269.362C541.984 257.234 528.398 244.47 518.252 239.145C462.333 209.796 397.64 210.78 336.443 208.94Z"/><path fill="#4B2E83" d="M179.446 768C143.437 759.554 106.429 748.507 85.6425 715.13C71.5227 692.458 69.7455 665.771 75.7881 640.192C84.3902 603.779 109.624 558.037 142.204 538.011C152.109 531.923 164.238 527.491 175.913 530.41C186.36 533.021 193.404 540.802 198.684 549.756C209.397 567.925 214.692 592.073 222.055 611.999C250.418 688.76 292.395 737.153 373.553 758.352C383.941 761.036 394.449 763.229 405.043 764.922C410.894 765.91 417.207 766.468 422.92 768L347.378 768L261.479 768L179.446 768Z"/><defs><linearGradient id="gradient_13" gradientUnits="userSpaceOnUse" x1="339.30875" y1="710.84058" x2="122.15517" y2="684.58643"><stop offset="0" stop-color="#3A62C4"/><stop offset="1" stop-color="#1F78CF"/></linearGradient></defs><path fill="url(#gradient_13)" d="M261.479 768C217.535 759.931 162.894 751.357 135.683 711.683C125.131 696.298 120.995 678.972 124.499 660.53C126.807 648.378 133.322 634.648 143.785 627.588C149.311 623.859 155.777 622.542 162.312 623.955C180.022 627.785 199.263 660.496 209.812 674.97C215.984 683.438 222.42 691.91 229.331 699.788C242.135 714.569 256.81 727.618 272.987 738.605C288.974 749.251 306.468 756.82 324.919 762.053C332.342 764.158 340.044 765.679 347.378 768L261.479 768Z"/><defs><linearGradient id="gradient_14" gradientUnits="userSpaceOnUse" x1="1146.8529" y1="592.2475" x2="584.1366" y2="566.94177"><stop offset="0" stop-color="#601663"/><stop offset="1" stop-color="#3E3DB5"/></linearGradient></defs><path fill="url(#gradient_14)" d="M604.765 544.681C592.688 528.562 584.172 511.595 587.089 490.909C589.992 470.323 604.131 454.287 620.257 442.274C658.28 413.95 714.894 397.957 761.639 394.343C770.765 393.637 780.806 392.681 789.864 394.038C790.772 394.174 791.536 394.47 792.321 394.93L792.337 394.918C789.316 398.642 740.563 408.948 731.912 411.605C691.491 424.023 635.739 452.308 640.944 502.783C642.706 519.877 654.006 537.351 667.254 548.079C715.26 586.953 788 593.41 847.674 593.49C864.983 593.513 882.285 592.474 899.595 592.314C924.04 592.086 948.483 593.745 972.883 593.484C980.206 595.544 996.75 595.261 1005.47 596.02C1036.15 598.691 1097.32 606.755 1121.64 624.618L1121.45 625.562C1126 628.407 1143.25 639.651 1144.69 644.091C1144.74 644.239 1144.74 644.397 1144.77 644.549C1143.14 645.128 1142.2 645.22 1141.42 646.927C1138.62 653.099 1138.29 664.817 1140.19 671.256C1141.45 675.514 1140.55 696.263 1139.64 700.886C1138.76 705.328 1136.33 710.05 1135.96 714.466C1135.81 716.172 1136.44 717.045 1137.16 718.529C1134.72 720.936 1132.2 723.348 1129.47 725.426C1127.01 727.292 1113.51 735.436 1112.99 737.184L1113.12 737.467C1096 749.38 1061.1 758.427 1039.81 762.632C1031.2 764.332 1021.21 765.187 1012.95 768L935.76 768C945.816 765.346 957 764.576 967.286 762.716C1000.66 756.682 1039.81 746.055 1064.89 722.299C1075.42 712.324 1082.56 699.701 1082.87 684.882C1083.16 671.485 1078.01 658.889 1068.79 649.216C1027.96 606.383 934.394 607.677 878.912 607.668C852.867 607.806 826.82 607.62 800.78 607.109C743.17 605.62 666.264 594.921 619.957 559.057C614.599 554.907 609.427 549.591 604.765 544.681Z"/><path fill="#2A1B4D" d="M440.667 365.738C443.477 366.238 445.228 365.47 447.945 365.187C450.27 364.944 452.497 364.006 454.806 363.804C456.159 363.686 457.412 363.281 458.739 363.169C461.275 362.955 463.996 362.402 466.493 361.889C468.888 361.397 471.683 360.776 473.785 362.163C454.739 368.84 435.355 374.22 416.546 381.643C358.963 404.368 301.505 442.196 273.984 499.506C262.364 523.701 251.557 569.695 260.832 595.766C261.58 597.867 262.455 599.244 264.429 600.284L265.904 599.876C274.715 580.832 275.539 557.797 281.135 537.559C293.786 491.809 324.807 453.713 363.595 427.087C370.928 422.054 379.509 416.02 387.748 412.607L387.942 413.649C357.438 430.861 330.035 452.645 309.58 481.328C305.304 487.324 301.102 493.295 298.038 500.019C296.496 503.4 300.322 509.468 297.41 512.161C296.319 511.276 295.801 510.532 294.375 510.451C292.286 512.131 290.787 514.634 290.497 517.327C290.368 518.517 291.549 518.654 291.01 520.027C289.967 519.765 289.543 519.054 288.915 518.252C288.032 520.532 287.61 523.114 286.277 525.153C290.271 529.337 295.143 531.48 295.17 538.037C295.185 541.391 292.419 544.264 292.666 547.614C293.657 547.588 294.396 547.392 295.336 547.111C297.639 550.738 299.58 556.686 298.63 560.99C298.429 561.901 297.959 562.702 297.445 563.468C295.005 564.748 293.656 564.235 291.113 563.439C289.1 562.81 287.32 561.989 285.18 562.409C284.09 563.961 283.868 565.208 284.238 567.112C284.429 568.096 284.721 569.07 285.002 570.031L285.538 570.325C288.924 572.217 292.27 576.456 295.849 577.646C299.844 578.974 305.176 576.11 308.81 577.83C309.557 578.183 309.879 579.173 310.562 579.605C312.113 580.584 313.013 580.01 313.638 582.176C313.914 583.135 313.863 584.355 313.936 585.354C313.967 585.768 314.062 586.103 314.214 586.486C318.217 578.507 321.953 569.15 331.152 565.964C336.549 564.095 342.442 565.421 347.418 567.879C362.815 575.484 375.768 594.842 389.201 606.266C392.545 609.11 409.452 620.83 410.549 622.395L409.627 622.626C406.762 621.577 403.663 618.918 401.168 617.147C391.187 610.058 381.995 601.553 373.53 592.727C366.991 585.91 360.695 578.247 352.976 572.728C347.58 568.87 340.85 565.482 334.027 566.736C328.446 567.761 324.179 571.476 321.062 576.056C306.922 596.834 311.365 623.84 315.554 646.809C317.597 658.01 319.612 673.894 312.64 683.711C310.418 686.839 307.231 688.956 303.415 689.531C296.882 690.517 289.933 687.053 284.918 683.166C258.694 662.842 243.339 618.877 239.284 587.128C233.137 541.289 245.753 494.909 274.27 458.504C306.543 416.88 362.47 388.722 412.035 373.361C421.156 370.534 431.203 366.939 440.667 365.738Z"/><path fill="#7A5AC7" d="M456.877 173.431C521.507 168.518 593.947 169.187 654.063 196.265C721.528 226.653 723.902 286.029 653.827 316.473L653.537 315.68L664.517 309.563C669.251 306.88 682.48 299.5 683.924 294.263L683.118 293.374C676.201 294.054 680.404 287.923 678.474 285.643C676.963 287.204 674.558 290.283 672.716 290.572C672.214 288.762 673.615 286.951 674.121 284.986C675.029 281.458 670.974 278.585 670.888 276.508C672.46 274.019 671.625 274.614 673.946 273.721C675.911 274.292 676.285 275.024 677.461 276.647L678.129 276.735C678.226 273.178 677.153 262.691 674.708 260.294C672.733 262.109 671.506 262.712 668.946 262.231C666.645 259.625 668.948 242.276 668.188 237.779C667.909 236.127 670.656 235.037 671.459 232.612C664.045 229.556 668.147 227.965 664.444 225.414C663.146 226.046 664.706 228.693 663.267 231.838C658.915 229.669 659.06 216.56 661.208 212.454C664.746 210.19 665.15 213.978 668.313 214.631L671.04 212.634C672.856 215.685 673.7 217.186 676.033 219.815C678.304 220.436 677.338 220.433 679.726 219.663C680.195 219.09 681.183 218.205 680.916 217.612C675.208 204.942 644.117 192.975 633.91 189.539C587.058 173.768 538.51 171.123 489.552 173.04C478.914 173.456 467.959 173.295 457.437 174.575L456.877 173.431Z"/><path fill="#4B2E83" d="M440.667 365.738C452.762 361.888 466.687 360.467 479.333 359.97C477.539 361.06 475.897 361.919 473.785 362.163C471.683 360.776 468.888 361.397 466.493 361.889C463.996 362.402 461.275 362.955 458.739 363.169C457.412 363.281 456.159 363.686 454.806 363.804C452.497 364.006 450.27 364.944 447.945 365.187C445.228 365.47 443.477 366.238 440.667 365.738Z"/><path fill="#7A5AC7" d="M923.022 283.241C923.238 283.452 923.554 283.691 923.699 283.956C923.949 284.412 922.395 290.216 922.031 291.118C921.936 290.978 921.837 290.839 921.745 290.697C920.484 288.754 922.619 285.303 923.022 283.241Z"/></svg>